# xmcd
#
# Track frame offsets:
#	150
#	10998
#	20406
#	33663
#	45954
#	59650
#	69876
#	81578
#	92602
#	103320
#	115674
#	125679
#	134904
#	144762
#
# Disc length: 2071 seconds
#
# Revision: 1
# Processed by: cddbd v1.5.2PL0 Copyright (c) Steve Scherf et al.
# Submitted via: EasyCDDAExtractor 10.0.3.1
#
DISCID=c408150e
DTITLE=Hank Locklin - Please Help Me, I'm Falling
DYEAR=1969
DGENRE=Country
TTITLE0=Please Help Me, I'm Falling
TTITLE1=My Old Home Town
TTITLE2=(I'm So Tired Of) Goin' Home All By Myself
TTITLE3=It's A Little More Like Heaven
TTITLE4=Livin' Alone
TTITLE5=Seven Days (The Humming Song)
TTITLE6=Send Me The Pillow You Dream On
TTITLE7=Blues In Advance
TTITLE8=Why Don't You Haul Off And Love Me
TTITLE9=When The Band Plays The Blues
TTITLE10=Hiding In My Heart
TTITLE11=Foreign Car
TTITLE12=Geisha Girl
TTITLE13=One Has My Name (The Other Has My Heart)
EXTD=
EXTT0=
EXTT1=
EXTT2=
EXTT3=
EXTT4=
EXTT5=
EXTT6=
EXTT7=
EXTT8=
EXTT9=
EXTT10=
EXTT11=
EXTT12=
EXTT13=
PLAYORDER=
